<svg width="82" height="47" viewBox="0 0 82 47" fill="none" xmlns="http://www.w3.org/2000/svg">
<path d="M37.309 1.03C37.1619 2.14402 37.33 2.0179 34.7657 3.08988C34.6185 3.13192 34.1771 2.87969 33.7357 2.50134L32.979 1.82873L30.751 4.03574L28.544 6.24275L29.2166 6.99944L29.8892 7.77715L29.3638 9.08034L28.8173 10.4045L27.7663 10.5937L26.6943 10.7829V13.7886C26.6943 17.1517 26.5892 16.9205 28.2287 17.0676C28.7542 17.1307 28.9013 17.2988 29.3638 18.4549L29.8892 19.7791L29.3427 20.4937C29.0485 20.8721 28.7962 21.2714 28.7962 21.3765C28.7962 21.4816 29.7421 22.4906 30.8771 23.6256L32.958 25.7065L33.7988 25.0549L34.6396 24.3823L35.8587 24.9498C37.309 25.6014 37.4141 25.7065 37.4141 26.7364V27.5352H39.3058H41.1975V25.9587V24.4033L42.9421 24.3402L44.6657 24.2772L45.4224 25.0549C46.0319 25.7065 46.3262 25.8536 46.9568 25.8536C48.4491 25.8536 49.395 24.9708 49.395 23.5415C49.395 22.1753 48.4071 21.2294 46.9778 21.2294C46.3682 21.2294 46.0319 21.3976 45.4014 22.0071L44.6026 22.8058L42.9001 22.7428L41.1975 22.6587V21.9861C41.1975 21.2925 41.1765 21.2925 40.0415 21.1453C37.33 20.83 35.123 19.3587 33.9249 17.0256C33.3784 15.9746 33.3154 15.6804 33.3154 13.7676C33.3154 11.8549 33.3784 11.5606 33.9039 10.5307C35.165 8.1555 37.2249 6.76823 39.9784 6.43193L41.1765 6.28479L41.2396 5.50708L41.3026 4.72938L42.9211 4.68734L44.5186 4.6453L45.3593 5.48606C46.4733 6.57906 47.5453 6.6211 48.6593 5.65422C49.3109 5.0867 49.395 4.87651 49.395 3.9937C49.395 3.1109 49.3109 2.90071 48.6593 2.33319C47.5663 1.38733 46.4733 1.40835 45.4434 2.45931C44.6657 3.216 44.6447 3.21599 42.9842 3.21599L41.3026 3.19498L41.2396 1.59752L41.1765 6.53821e-05H39.3268H37.4561L37.309 1.03Z" fill="#4A82C2"/>
<path d="M50.8663 5.21269C50.2988 5.50695 50.0465 5.84326 49.7943 6.62097C49.479 7.54581 49.3319 7.69295 48.1128 8.32352L46.7676 9.01715L42.7109 9.03817C38.3389 9.03817 37.8764 9.12225 36.6153 10.1942C35.5223 11.098 35.0178 12.2751 34.9968 13.8726C34.9968 15.5541 35.6064 16.7732 36.9516 17.7401L37.8764 18.3917L42.4166 18.4968C46.8937 18.6019 46.9988 18.6229 48.3019 19.2114C49.2478 19.6528 49.6051 19.9261 49.6051 20.2204C49.6051 21.6076 51.0765 22.8688 52.4217 22.6165C53.6829 22.3853 54.5657 20.956 54.2293 19.7369C53.7879 18.2025 52.3797 17.5299 50.9924 18.1815C50.2357 18.5388 50.2357 18.5388 48.6593 17.7821L47.1039 17.0255H42.9631C39.1166 17.0255 38.7803 17.0044 38.0236 16.563C37.1198 16.0586 36.3631 14.7764 36.3631 13.7675C36.3631 12.7586 37.1198 11.4764 38.0236 10.9719C38.7803 10.5305 39.1166 10.5095 43.0051 10.5095H47.1879L48.7013 9.75282L50.2147 8.97511L50.9714 9.35346C51.9803 9.81588 52.9262 9.64773 53.7039 8.82798C54.5657 7.92416 54.5446 6.53689 53.6829 5.65409C52.8631 4.83434 51.8332 4.68721 50.8663 5.21269Z" fill="#4A82C2"/>
<path d="M51.1606 11.5396C50.9293 11.6447 50.4879 12.023 50.1727 12.3803L49.6262 13.0319H44.2663H38.8854V13.7676V14.5033H44.3083H49.7523L50.0255 15.0288C50.3198 15.5542 51.3918 16.1848 52.0644 16.1848C52.737 16.1848 53.83 15.3651 54.1453 14.5874C54.902 12.8007 52.9262 10.7829 51.1606 11.5396Z" fill="#4A82C2"/>
<path d="M75.2485 33.4417C73.2938 33.841 71.8855 35.3964 71.8855 37.1621C71.8855 39.243 72.9364 40.1888 76.2785 41.0716C79.1161 41.8283 79.7256 42.3538 79.2422 43.5939C78.6957 45.0653 75.2906 45.1914 73.2307 43.8041C72.474 43.2786 72.432 43.2786 72.1587 43.657C71.339 44.75 71.5702 45.2334 73.3568 46.0952C74.1555 46.4735 74.66 46.5576 76.5097 46.5576C78.5275 46.5576 78.8008 46.5156 79.7046 45.9901C80.9447 45.2544 81.6594 43.9092 81.5122 42.585C81.302 40.7774 80.3982 40.0837 77.0982 39.2009C76.0262 38.9066 74.9122 38.5073 74.618 38.2971C73.8823 37.7506 73.8192 36.7837 74.4918 36.027C74.9753 35.4385 75.0804 35.4175 76.7829 35.4175C78.4645 35.4175 78.6326 35.4595 79.5364 36.0901C80.0829 36.4684 80.5454 36.7837 80.5874 36.7837C80.6294 36.7837 80.8186 36.3843 81.0498 35.9219L81.4282 35.0391L80.8186 34.5557C79.5995 33.5888 77.0352 33.0633 75.2485 33.4417Z" fill="#4A82C2"/>
<path d="M0 40.0415V46.7256L3.53122 46.6205C6.78919 46.5364 7.12549 46.4944 7.98728 46.0109C8.49174 45.7377 9.14333 45.1702 9.41658 44.7708C9.83696 44.1402 9.90002 43.846 9.83696 42.6269C9.77391 41.3447 9.68983 41.1345 9.03824 40.4619L8.32358 39.7262L8.76499 39.2638C9.41658 38.5281 9.66881 37.9396 9.66881 37.0778C9.66881 35.8587 8.97518 34.6186 7.92422 34.03C7.10447 33.5676 6.78919 33.5256 3.53122 33.4625L0 33.3784V40.0415ZM7.06244 36.0058C7.60893 36.6574 7.69301 37.1409 7.33568 37.8975C6.97836 38.6752 6.28473 38.8854 4.09873 38.8854H2.10192V37.0778V35.2701L4.32995 35.3542C6.4739 35.4173 6.57899 35.4383 7.06244 36.0058ZM7.10447 41.3447C7.54588 41.681 7.69301 41.9753 7.73505 42.6899C7.77709 43.2154 7.67199 43.7829 7.52486 43.9931C7.14651 44.4976 5.9274 44.7498 3.8465 44.7708H2.10192V42.753V40.7141L4.30893 40.8192C6.11657 40.9033 6.64205 41.0084 7.10447 41.3447Z" fill="#4A82C2"/>
<path d="M11.8758 33.6728C11.8128 33.8199 11.7918 36.7836 11.8128 40.2518L11.8758 46.5575L16.0376 46.6206L20.1784 46.6626V45.6116V44.5607H17.1306H14.0829L14.0408 39.0326L13.9778 33.5256L12.9688 33.4626C12.2962 33.4205 11.9389 33.4836 11.8758 33.6728Z" fill="#4A82C2"/>
<path d="M20.8089 37.7715C20.8089 40.1887 20.914 42.5639 21.0401 43.0893C21.5656 45.4225 23.2681 46.6626 25.9586 46.6626C27.9134 46.6626 28.8592 46.3683 29.8471 45.4855C31.2554 44.2034 31.4236 43.4467 31.4236 38.1498V33.5256L30.3306 33.4626L29.2166 33.3995V38.0868C29.2166 42.4167 29.1745 42.8371 28.7962 43.4677C27.7242 45.2123 24.3401 45.1913 23.3732 43.4256C23.079 42.8792 22.9949 42.0174 22.9529 38.0868L22.8898 33.4205H21.8388H20.8089V37.7715Z" fill="#4A82C2"/>
<path d="M38.2968 39.9785L38.3599 46.5575H43.3834H48.407L49.0796 44.9811L49.7522 43.4046L52.737 43.3416L55.7217 43.2785L56.4784 44.9811L57.2351 46.6626H58.265C58.8325 46.6626 59.2739 46.5575 59.2739 46.4314C59.2739 46.2422 58.7484 45.0231 54.965 36.4683L53.6618 33.5256H52.779H51.8962L49.521 38.8855C48.2178 41.8282 47.1038 44.4135 47.0197 44.6448C46.9147 44.918 46.7885 44.96 46.5994 44.8129C46.4732 44.7078 45.2121 44.6027 43.8248 44.6027C42.4376 44.5817 41.0923 44.5817 40.8401 44.5817L40.3567 44.5607V38.9906V33.4205H39.3057H38.2548L38.2968 39.9785ZM53.872 38.8855C54.4185 40.1467 54.8599 41.2397 54.8599 41.3027C54.8599 41.3658 53.914 41.4078 52.737 41.4078C51.5809 41.4078 50.6561 41.3237 50.6981 41.2397C51.4128 39.411 52.6739 36.5734 52.779 36.5734C52.8421 36.5734 53.3465 37.6033 53.872 38.8855Z" fill="#4A82C2"/>
<path d="M60.3669 39.9786L60.43 46.5576H64.0032C67.4083 46.5366 67.6185 46.5156 68.5224 46.0321C70.6453 44.8551 71.0447 41.5971 69.258 40.1888L68.7956 39.8105L69.279 39.243C70.2669 38.0869 70.33 36.1742 69.4262 34.913C68.5854 33.757 67.7026 33.5257 63.8351 33.4627L60.3249 33.3786L60.3669 39.9786ZM67.2192 35.7328C67.8077 36.0901 67.8918 36.2582 67.8918 37.078C67.8918 37.8347 67.7867 38.0869 67.3453 38.4442C66.8618 38.8226 66.4835 38.8856 64.6128 38.8856H62.4268V37.2461C62.4268 36.3423 62.4899 35.5226 62.5739 35.4595C62.637 35.3754 63.5618 35.3124 64.6128 35.3124C66.1472 35.3124 66.6517 35.3964 67.2192 35.7328ZM67.5765 41.2818C68.5434 41.9124 68.4593 43.8251 67.4294 44.3716C67.1351 44.5398 66.0841 44.6449 64.7389 44.6449L62.5319 44.6659L62.4688 43.0054C62.4268 42.0805 62.4688 41.1977 62.5319 41.0296C62.7001 40.5882 66.8198 40.7984 67.5765 41.2818Z" fill="#4A82C2"/>
</svg>
