<svg width="83" height="47" viewBox="0 0 83 47" fill="none" xmlns="http://www.w3.org/2000/svg">
<path d="M37.9345 1.03C37.7873 2.14402 37.9555 2.0179 35.3912 3.08988C35.244 3.13192 34.8026 2.87969 34.3612 2.50134L33.6045 1.82873L31.3765 4.03574L29.1695 6.24275L29.8421 6.99944L30.5147 7.77715L29.9892 9.08034L29.4427 10.4045L28.3918 10.5937L27.3198 10.7829V13.7886C27.3198 17.1517 27.2147 16.9205 28.8542 17.0676C29.3797 17.1307 29.5268 17.2988 29.9892 18.4549L30.5147 19.7791L29.9682 20.4937C29.674 20.8721 29.4217 21.2714 29.4217 21.3765C29.4217 21.4816 30.3676 22.4906 31.5026 23.6256L33.5835 25.7065L34.4243 25.0549L35.265 24.3823L36.4842 24.9498C37.9345 25.6014 38.0396 25.7065 38.0396 26.7364V27.5352H39.9313H41.823V25.9587V24.4033L43.5676 24.3402L45.2912 24.2772L46.0479 25.0549C46.6574 25.7065 46.9517 25.8536 47.5823 25.8536C49.0746 25.8536 50.0205 24.9708 50.0205 23.5415C50.0205 22.1753 49.0326 21.2294 47.6033 21.2294C46.9937 21.2294 46.6574 21.3976 46.0269 22.0071L45.2281 22.8058L43.5256 22.7428L41.823 22.6587V21.9861C41.823 21.2925 41.802 21.2925 40.667 21.1453C37.9555 20.83 35.7485 19.3587 34.5504 17.0256C34.0039 15.9746 33.9408 15.6804 33.9408 13.7676C33.9408 11.8549 34.0039 11.5606 34.5294 10.5307C35.7905 8.1555 37.8504 6.76823 40.6039 6.43193L41.802 6.28479L41.8651 5.50708L41.9281 4.72938L43.5466 4.68734L45.144 4.6453L45.9848 5.48606C47.0988 6.57906 48.1708 6.6211 49.2848 5.65422C49.9364 5.0867 50.0205 4.87651 50.0205 3.9937C50.0205 3.1109 49.9364 2.90071 49.2848 2.33319C48.1918 1.38733 47.0988 1.40835 46.0689 2.45931C45.2912 3.216 45.2702 3.21599 43.6096 3.21599L41.9281 3.19498L41.8651 1.59752L41.802 6.53821e-05H39.9523H38.0816L37.9345 1.03Z" fill="#ECF2F9"/>
<path d="M51.4918 5.21269C50.9243 5.50695 50.672 5.84326 50.4198 6.62097C50.1045 7.54581 49.9574 7.69295 48.7383 8.32352L47.393 9.01715L43.3363 9.03817C38.9644 9.03817 38.5019 9.12225 37.2408 10.1942C36.1478 11.098 35.6433 12.2751 35.6223 13.8726C35.6223 15.5541 36.2319 16.7732 37.5771 17.7401L38.5019 18.3917L43.0421 18.4968C47.5192 18.6019 47.6242 18.6229 48.9274 19.2114C49.8733 19.6528 50.2306 19.9261 50.2306 20.2204C50.2306 21.6076 51.702 22.8688 53.0472 22.6165C54.3083 22.3853 55.1911 20.956 54.8548 19.7369C54.4134 18.2025 53.0052 17.5299 51.6179 18.1815C50.8612 18.5388 50.8612 18.5388 49.2848 17.7821L47.7293 17.0255H43.5886C39.7421 17.0255 39.4058 17.0044 38.6491 16.563C37.7452 16.0586 36.9886 14.7764 36.9886 13.7675C36.9886 12.7586 37.7452 11.4764 38.6491 10.9719C39.4058 10.5305 39.7421 10.5095 43.6306 10.5095H47.8134L49.3268 9.75282L50.8402 8.97511L51.5969 9.35346C52.6058 9.81588 53.5517 9.64773 54.3294 8.82798C55.1911 7.92416 55.1701 6.53689 54.3083 5.65409C53.4886 4.83434 52.4587 4.68721 51.4918 5.21269Z" fill="#ECF2F9"/>
<path d="M51.786 11.5396C51.5548 11.6447 51.1134 12.023 50.7981 12.3803L50.2517 13.0319H44.8918H39.5109V13.7676V14.5033H44.9338H50.3778L50.651 15.0288C50.9453 15.5542 52.0173 16.1848 52.6899 16.1848C53.3625 16.1848 54.4555 15.3651 54.7708 14.5874C55.5275 12.8007 53.5517 10.7829 51.786 11.5396Z" fill="#ECF2F9"/>
<path d="M75.874 33.4417C73.9192 33.841 72.511 35.3964 72.511 37.1621C72.511 39.243 73.5619 40.1888 76.904 41.0716C79.7415 41.8283 80.3511 42.3538 79.8677 43.5939C79.3212 45.0653 75.9161 45.1914 73.8562 43.8041C73.0995 43.2786 73.0575 43.2786 72.7842 43.657C71.9645 44.75 72.1957 45.2334 73.9823 46.0952C74.781 46.4735 75.2855 46.5576 77.1352 46.5576C79.153 46.5576 79.4263 46.5156 80.3301 45.9901C81.5702 45.2544 82.2849 43.9092 82.1377 42.585C81.9275 40.7774 81.0237 40.0837 77.7237 39.2009C76.6517 38.9066 75.5377 38.5073 75.2434 38.2971C74.5078 37.7506 74.4447 36.7837 75.1173 36.027C75.6008 35.4385 75.7059 35.4175 77.4084 35.4175C79.09 35.4175 79.2581 35.4595 80.1619 36.0901C80.7084 36.4684 81.1708 36.7837 81.2129 36.7837C81.2549 36.7837 81.4441 36.3843 81.6753 35.9219L82.0537 35.0391L81.4441 34.5557C80.225 33.5888 77.6606 33.0633 75.874 33.4417Z" fill="#ECF2F9"/>
<path d="M0.625488 40.0415V46.7256L4.15671 46.6205C7.41467 46.5364 7.75098 46.4944 8.61277 46.0109C9.11723 45.7377 9.76882 45.1702 10.0421 44.7708C10.4625 44.1402 10.5255 43.846 10.4625 42.6269C10.3994 41.3447 10.3153 41.1345 9.66372 40.4619L8.94907 39.7262L9.39047 39.2638C10.0421 38.5281 10.2943 37.9396 10.2943 37.0778C10.2943 35.8587 9.60067 34.6186 8.54971 34.03C7.72996 33.5676 7.41467 33.5256 4.15671 33.4625L0.625488 33.3784V40.0415ZM7.68792 36.0058C8.23442 36.6574 8.3185 37.1409 7.96117 37.8975C7.60385 38.6752 6.91021 38.8854 4.72422 38.8854H2.7274V37.0778V35.2701L4.95543 35.3542C7.09939 35.4173 7.20448 35.4383 7.68792 36.0058ZM7.72996 41.3447C8.17136 41.681 8.3185 41.9753 8.36054 42.6899C8.40257 43.2154 8.29748 43.7829 8.15034 43.9931C7.772 44.4976 6.55289 44.7498 4.47199 44.7708H2.7274V42.753V40.7141L4.93441 40.8192C6.74206 40.9033 7.26754 41.0084 7.72996 41.3447Z" fill="#ECF2F9"/>
<path d="M12.5013 33.6728C12.4383 33.8199 12.4173 36.7836 12.4383 40.2518L12.5013 46.5575L16.6631 46.6206L20.8039 46.6626V45.6116V44.5607H17.7561H14.7083L14.6663 39.0326L14.6032 33.5256L13.5943 33.4626C12.9217 33.4205 12.5644 33.4836 12.5013 33.6728Z" fill="#ECF2F9"/>
<path d="M21.4344 37.7715C21.4344 40.1887 21.5395 42.5639 21.6656 43.0893C22.1911 45.4225 23.8936 46.6626 26.5841 46.6626C28.5389 46.6626 29.4847 46.3683 30.4726 45.4855C31.8809 44.2034 32.0491 43.4467 32.0491 38.1498V33.5256L30.9561 33.4626L29.842 33.3995V38.0868C29.842 42.4167 29.8 42.8371 29.4217 43.4677C28.3497 45.2123 24.9656 45.1913 23.9987 43.4256C23.7045 42.8792 23.6204 42.0174 23.5783 38.0868L23.5153 33.4205H22.4643H21.4344V37.7715Z" fill="#ECF2F9"/>
<path d="M38.9223 39.9785L38.9853 46.5575H44.0089H49.0325L49.7051 44.9811L50.3777 43.4046L53.3624 43.3416L56.3472 43.2785L57.1039 44.9811L57.8605 46.6626H58.8905C59.458 46.6626 59.8994 46.5575 59.8994 46.4314C59.8994 46.2422 59.3739 45.0231 55.5905 36.4683L54.2873 33.5256H53.4045H52.5217L50.1465 38.8855C48.8433 41.8282 47.7293 44.4135 47.6452 44.6448C47.5401 44.918 47.414 44.96 47.2249 44.8129C47.0987 44.7078 45.8376 44.6027 44.4503 44.6027C43.0631 44.5817 41.7178 44.5817 41.4656 44.5817L40.9822 44.5607V38.9906V33.4205H39.9312H38.8802L38.9223 39.9785ZM54.4975 38.8855C55.044 40.1467 55.4854 41.2397 55.4854 41.3027C55.4854 41.3658 54.5395 41.4078 53.3624 41.4078C52.2064 41.4078 51.2815 41.3237 51.3236 41.2397C52.0382 39.411 53.2994 36.5734 53.4045 36.5734C53.4675 36.5734 53.972 37.6033 54.4975 38.8855Z" fill="#ECF2F9"/>
<path d="M60.9924 39.9786L61.0555 46.5576H64.6287C68.0338 46.5366 68.244 46.5156 69.1478 46.0321C71.2708 44.8551 71.6701 41.5971 69.8835 40.1888L69.4211 39.8105L69.9045 39.243C70.8924 38.0869 70.9555 36.1742 70.0517 34.913C69.2109 33.757 68.3281 33.5257 64.4606 33.4627L60.9504 33.3786L60.9924 39.9786ZM67.8447 35.7328C68.4332 36.0901 68.5173 36.2582 68.5173 37.078C68.5173 37.8347 68.4122 38.0869 67.9708 38.4442C67.4873 38.8226 67.109 38.8856 65.2383 38.8856H63.0523V37.2461C63.0523 36.3423 63.1154 35.5226 63.1994 35.4595C63.2625 35.3754 64.1873 35.3124 65.2383 35.3124C66.7727 35.3124 67.2771 35.3964 67.8447 35.7328ZM68.202 41.2818C69.1689 41.9124 69.0848 43.8251 68.0549 44.3716C67.7606 44.5398 66.7096 44.6449 65.3644 44.6449L63.1574 44.6659L63.0943 43.0054C63.0523 42.0805 63.0943 41.1977 63.1574 41.0296C63.3255 40.5882 67.4453 40.7984 68.202 41.2818Z" fill="#ECF2F9"/>
</svg>
